<svg xmlns="http://www.w3.org/2000/svg" viewBox="0 0 240 290" width="240" height="290" role="img" aria-label="the Nudge Bunny, normal">
  <title>the Nudge Bunny (normal)</title>
  <g id="body">
    <circle cx="66" cy="246" r="10" fill="#F6F3EC" stroke="#C9C1B3" stroke-width="3"/>
    <ellipse cx="120" cy="240" rx="50" ry="36" fill="#F6F3EC" stroke="#C9C1B3" stroke-width="3"/>
    <ellipse cx="98" cy="270" rx="17" ry="8" fill="#F6F3EC" stroke="#C9C1B3" stroke-width="3"/>
    <ellipse cx="142" cy="270" rx="17" ry="8" fill="#F6F3EC" stroke="#C9C1B3" stroke-width="3"/>
    <path d="M90 268 v5 M98 269 v5 M106 268 v5 M134 268 v5 M142 269 v5 M150 268 v5" stroke="#C9C1B3" stroke-width="2" stroke-linecap="round"/>
    <circle cx="92" cy="238" r="11" fill="#F6F3EC" stroke="#C9C1B3" stroke-width="3"/>
    <circle cx="148" cy="238" r="11" fill="#F6F3EC" stroke="#C9C1B3" stroke-width="3"/>
    <g transform="translate(164 232)">
      <circle r="17" fill="#2EA44F"/>
      <path d="M-7 2 a8 8 0 1 1 3.5 6.5" stroke="#fff" stroke-width="3.2" fill="none" stroke-linecap="round"/>
      <path d="M-5 9.5 l5.5 1.2 l-1 -5.6 z" fill="#fff"/>
    </g>
  </g>
  <g id="ears" stroke="#C9C1B3" stroke-width="3">
    <g transform="translate(96 118) rotate(-14)">
      <rect x="-19" y="-118" width="38" height="124" rx="19" fill="#F6F3EC"/>
      <rect x="-10" y="-102" width="20" height="92" rx="10" fill="#F9C3CE" stroke="none"/>
    </g>
    <g transform="translate(144 118) rotate(14)">
      <rect x="-19" y="-118" width="38" height="124" rx="19" fill="#F6F3EC"/>
      <rect x="-10" y="-102" width="20" height="92" rx="10" fill="#F9C3CE" stroke="none"/>
    </g>
  </g>
  <g id="head">
    <circle cx="120" cy="152" r="64" fill="#F6F3EC" stroke="#C9C1B3" stroke-width="3"/>
    <ellipse cx="82" cy="170" rx="12" ry="7.5" fill="#F8C9D2"/>
    <ellipse cx="158" cy="170" rx="12" ry="7.5" fill="#F8C9D2"/>
    <g stroke="#C9C1B3" stroke-width="2.2" stroke-linecap="round" fill="none">
      <path d="M68 158 H46 M68 165 L46 170 M68 151 L46 146"/>
      <path d="M172 158 H194 M172 165 L194 170 M172 151 L194 146"/>
    </g>
    <path d="M113 161 H127 L120 169 Z" fill="#E78CA0"/>
  </g>
  <g id="face-normal">
    <circle cx="98" cy="144" r="7" fill="#2B2B2B"/><circle cx="100.5" cy="141.5" r="2.4" fill="#fff"/>
    <circle cx="142" cy="144" r="7" fill="#2B2B2B"/><circle cx="144.5" cy="141.5" r="2.4" fill="#fff"/>
    <path d="M120 169 q-4 7 -10 4 M120 169 q4 7 10 4" stroke="#B96F80" stroke-width="2.6" fill="none" stroke-linecap="round"/>
  </g>
</svg>
