<svg xmlns="http://www.w3.org/2000/svg" viewBox="0 0 1400 330" width="1400" height="330" role="img" aria-label="the Nudge Bunny's moods">
  <title>the Nudge Bunny's moods</title>
  <rect width="100%" height="100%" fill="#FBFAF7" rx="18"/>
  <g transform="translate(-20 10)">
  <g id="body">
    <circle cx="66" cy="246" r="10" fill="#F6F3EC" stroke="#C9C1B3" stroke-width="3"/>
    <ellipse cx="120" cy="240" rx="50" ry="36" fill="#F6F3EC" stroke="#C9C1B3" stroke-width="3"/>
    <ellipse cx="98" cy="270" rx="17" ry="8" fill="#F6F3EC" stroke="#C9C1B3" stroke-width="3"/>
    <ellipse cx="142" cy="270" rx="17" ry="8" fill="#F6F3EC" stroke="#C9C1B3" stroke-width="3"/>
    <path d="M90 268 v5 M98 269 v5 M106 268 v5 M134 268 v5 M142 269 v5 M150 268 v5" stroke="#C9C1B3" stroke-width="2" stroke-linecap="round"/>
    <circle cx="92" cy="238" r="11" fill="#F6F3EC" stroke="#C9C1B3" stroke-width="3"/>
    <circle cx="148" cy="238" r="11" fill="#F6F3EC" stroke="#C9C1B3" stroke-width="3"/>
    <g transform="translate(164 232)">
      <circle r="17" fill="#2EA44F"/>
      <path d="M-7 2 a8 8 0 1 1 3.5 6.5" stroke="#fff" stroke-width="3.2" fill="none" stroke-linecap="round"/>
      <path d="M-5 9.5 l5.5 1.2 l-1 -5.6 z" fill="#fff"/>
    </g>
  </g>
  <g id="ears" stroke="#C9C1B3" stroke-width="3">
    <g transform="translate(96 118) rotate(-14)">
      <rect x="-19" y="-118" width="38" height="124" rx="19" fill="#F6F3EC"/>
      <rect x="-10" y="-102" width="20" height="92" rx="10" fill="#F9C3CE" stroke="none"/>
    </g>
    <g transform="translate(144 118) rotate(14)">
      <rect x="-19" y="-118" width="38" height="124" rx="19" fill="#F6F3EC"/>
      <rect x="-10" y="-102" width="20" height="92" rx="10" fill="#F9C3CE" stroke="none"/>
    </g>
  </g>
  <g id="head">
    <circle cx="120" cy="152" r="64" fill="#F6F3EC" stroke="#C9C1B3" stroke-width="3"/>
    <ellipse cx="82" cy="170" rx="12" ry="7.5" fill="#F8C9D2"/>
    <ellipse cx="158" cy="170" rx="12" ry="7.5" fill="#F8C9D2"/>
    <g stroke="#C9C1B3" stroke-width="2.2" stroke-linecap="round" fill="none">
      <path d="M68 158 H46 M68 165 L46 170 M68 151 L46 146"/>
      <path d="M172 158 H194 M172 165 L194 170 M172 151 L194 146"/>
    </g>
    <path d="M113 161 H127 L120 169 Z" fill="#E78CA0"/>
  </g>
  <g id="face-normal">
    <circle cx="98" cy="144" r="7" fill="#2B2B2B"/><circle cx="100.5" cy="141.5" r="2.4" fill="#fff"/>
    <circle cx="142" cy="144" r="7" fill="#2B2B2B"/><circle cx="144.5" cy="141.5" r="2.4" fill="#fff"/>
    <path d="M120 169 q-4 7 -10 4 M120 169 q4 7 10 4" stroke="#B96F80" stroke-width="2.6" fill="none" stroke-linecap="round"/>
  </g>
  </g>
  <text x="100" y="318" text-anchor="middle" font-family="ui-sans-serif, system-ui, sans-serif" font-size="18" fill="#2B2B2B">normal</text>
  <g transform="translate(180 10)">
  <g id="body">
    <circle cx="66" cy="246" r="10" fill="#F6F3EC" stroke="#C9C1B3" stroke-width="3"/>
    <ellipse cx="120" cy="240" rx="50" ry="36" fill="#F6F3EC" stroke="#C9C1B3" stroke-width="3"/>
    <ellipse cx="98" cy="270" rx="17" ry="8" fill="#F6F3EC" stroke="#C9C1B3" stroke-width="3"/>
    <ellipse cx="142" cy="270" rx="17" ry="8" fill="#F6F3EC" stroke="#C9C1B3" stroke-width="3"/>
    <path d="M90 268 v5 M98 269 v5 M106 268 v5 M134 268 v5 M142 269 v5 M150 268 v5" stroke="#C9C1B3" stroke-width="2" stroke-linecap="round"/>
    <circle cx="92" cy="238" r="11" fill="#F6F3EC" stroke="#C9C1B3" stroke-width="3"/>
    <circle cx="148" cy="238" r="11" fill="#F6F3EC" stroke="#C9C1B3" stroke-width="3"/>
    <g transform="translate(164 232)">
      <circle r="17" fill="#2EA44F"/>
      <path d="M-7 2 a8 8 0 1 1 3.5 6.5" stroke="#fff" stroke-width="3.2" fill="none" stroke-linecap="round"/>
      <path d="M-5 9.5 l5.5 1.2 l-1 -5.6 z" fill="#fff"/>
    </g>
  </g>
  <g id="ears" stroke="#C9C1B3" stroke-width="3">
    <g transform="translate(96 118) rotate(-14)">
      <rect x="-19" y="-118" width="38" height="124" rx="19" fill="#F6F3EC"/>
      <rect x="-10" y="-102" width="20" height="92" rx="10" fill="#F9C3CE" stroke="none"/>
    </g>
    <g transform="translate(144 118) rotate(14)">
      <rect x="-19" y="-118" width="38" height="124" rx="19" fill="#F6F3EC"/>
      <rect x="-10" y="-102" width="20" height="92" rx="10" fill="#F9C3CE" stroke="none"/>
    </g>
  </g>
  <g id="head">
    <circle cx="120" cy="152" r="64" fill="#F6F3EC" stroke="#C9C1B3" stroke-width="3"/>
    <ellipse cx="82" cy="170" rx="12" ry="7.5" fill="#F8C9D2"/>
    <ellipse cx="158" cy="170" rx="12" ry="7.5" fill="#F8C9D2"/>
    <g stroke="#C9C1B3" stroke-width="2.2" stroke-linecap="round" fill="none">
      <path d="M68 158 H46 M68 165 L46 170 M68 151 L46 146"/>
      <path d="M172 158 H194 M172 165 L194 170 M172 151 L194 146"/>
    </g>
    <path d="M113 161 H127 L120 169 Z" fill="#E78CA0"/>
  </g>
  <g id="face-happy">
    <path d="M88 146 q10 -12 20 0 M132 146 q10 -12 20 0" stroke="#2B2B2B" stroke-width="4.2" fill="none" stroke-linecap="round"/>
    <path d="M108 170 q12 12 24 0" stroke="#B96F80" stroke-width="2.8" fill="none" stroke-linecap="round"/>
  </g>
  </g>
  <text x="300" y="318" text-anchor="middle" font-family="ui-sans-serif, system-ui, sans-serif" font-size="18" fill="#2B2B2B">happy</text>
  <g transform="translate(380 10)">
  <g id="body">
    <circle cx="66" cy="246" r="10" fill="#F6F3EC" stroke="#C9C1B3" stroke-width="3"/>
    <ellipse cx="120" cy="240" rx="50" ry="36" fill="#F6F3EC" stroke="#C9C1B3" stroke-width="3"/>
    <ellipse cx="98" cy="270" rx="17" ry="8" fill="#F6F3EC" stroke="#C9C1B3" stroke-width="3"/>
    <ellipse cx="142" cy="270" rx="17" ry="8" fill="#F6F3EC" stroke="#C9C1B3" stroke-width="3"/>
    <path d="M90 268 v5 M98 269 v5 M106 268 v5 M134 268 v5 M142 269 v5 M150 268 v5" stroke="#C9C1B3" stroke-width="2" stroke-linecap="round"/>
    <circle cx="92" cy="238" r="11" fill="#F6F3EC" stroke="#C9C1B3" stroke-width="3"/>
    <circle cx="148" cy="238" r="11" fill="#F6F3EC" stroke="#C9C1B3" stroke-width="3"/>
    <g transform="translate(164 232)">
      <circle r="17" fill="#2EA44F"/>
      <path d="M-7 2 a8 8 0 1 1 3.5 6.5" stroke="#fff" stroke-width="3.2" fill="none" stroke-linecap="round"/>
      <path d="M-5 9.5 l5.5 1.2 l-1 -5.6 z" fill="#fff"/>
    </g>
  </g>
  <g id="ears" stroke="#C9C1B3" stroke-width="3">
    <g transform="translate(96 118) rotate(-14)">
      <rect x="-19" y="-118" width="38" height="124" rx="19" fill="#F6F3EC"/>
      <rect x="-10" y="-102" width="20" height="92" rx="10" fill="#F9C3CE" stroke="none"/>
    </g>
    <g transform="translate(144 118) rotate(14)">
      <rect x="-19" y="-118" width="38" height="124" rx="19" fill="#F6F3EC"/>
      <rect x="-10" y="-102" width="20" height="92" rx="10" fill="#F9C3CE" stroke="none"/>
    </g>
  </g>
  <g id="head">
    <circle cx="120" cy="152" r="64" fill="#F6F3EC" stroke="#C9C1B3" stroke-width="3"/>
    <ellipse cx="82" cy="170" rx="12" ry="7.5" fill="#F8C9D2"/>
    <ellipse cx="158" cy="170" rx="12" ry="7.5" fill="#F8C9D2"/>
    <g stroke="#C9C1B3" stroke-width="2.2" stroke-linecap="round" fill="none">
      <path d="M68 158 H46 M68 165 L46 170 M68 151 L46 146"/>
      <path d="M172 158 H194 M172 165 L194 170 M172 151 L194 146"/>
    </g>
    <path d="M113 161 H127 L120 169 Z" fill="#E78CA0"/>
  </g>
  <g id="face-wide">
    <circle cx="98" cy="144" r="9.5" fill="#2B2B2B"/><circle cx="101.5" cy="140.5" r="3.2" fill="#fff"/>
    <circle cx="142" cy="144" r="9.5" fill="#2B2B2B"/><circle cx="145.5" cy="140.5" r="3.2" fill="#fff"/>
    <ellipse cx="120" cy="174" rx="5" ry="6" fill="#B96F80"/>
  </g>
  </g>
  <text x="500" y="318" text-anchor="middle" font-family="ui-sans-serif, system-ui, sans-serif" font-size="18" fill="#2B2B2B">wide</text>
  <g transform="translate(580 10)">
  <g id="body">
    <circle cx="66" cy="246" r="10" fill="#F6F3EC" stroke="#C9C1B3" stroke-width="3"/>
    <ellipse cx="120" cy="240" rx="50" ry="36" fill="#F6F3EC" stroke="#C9C1B3" stroke-width="3"/>
    <ellipse cx="98" cy="270" rx="17" ry="8" fill="#F6F3EC" stroke="#C9C1B3" stroke-width="3"/>
    <ellipse cx="142" cy="270" rx="17" ry="8" fill="#F6F3EC" stroke="#C9C1B3" stroke-width="3"/>
    <path d="M90 268 v5 M98 269 v5 M106 268 v5 M134 268 v5 M142 269 v5 M150 268 v5" stroke="#C9C1B3" stroke-width="2" stroke-linecap="round"/>
    <circle cx="92" cy="238" r="11" fill="#F6F3EC" stroke="#C9C1B3" stroke-width="3"/>
    <circle cx="148" cy="238" r="11" fill="#F6F3EC" stroke="#C9C1B3" stroke-width="3"/>
    <g transform="translate(164 232)">
      <circle r="17" fill="#2EA44F"/>
      <path d="M-7 2 a8 8 0 1 1 3.5 6.5" stroke="#fff" stroke-width="3.2" fill="none" stroke-linecap="round"/>
      <path d="M-5 9.5 l5.5 1.2 l-1 -5.6 z" fill="#fff"/>
    </g>
  </g>
  <g id="ears" stroke="#C9C1B3" stroke-width="3">
    <g transform="translate(96 118) rotate(-14)">
      <rect x="-19" y="-118" width="38" height="124" rx="19" fill="#F6F3EC"/>
      <rect x="-10" y="-102" width="20" height="92" rx="10" fill="#F9C3CE" stroke="none"/>
    </g>
    <g transform="translate(144 118) rotate(14)">
      <rect x="-19" y="-118" width="38" height="124" rx="19" fill="#F6F3EC"/>
      <rect x="-10" y="-102" width="20" height="92" rx="10" fill="#F9C3CE" stroke="none"/>
    </g>
  </g>
  <g id="head">
    <circle cx="120" cy="152" r="64" fill="#F6F3EC" stroke="#C9C1B3" stroke-width="3"/>
    <ellipse cx="82" cy="170" rx="12" ry="7.5" fill="#F8C9D2"/>
    <ellipse cx="158" cy="170" rx="12" ry="7.5" fill="#F8C9D2"/>
    <g stroke="#C9C1B3" stroke-width="2.2" stroke-linecap="round" fill="none">
      <path d="M68 158 H46 M68 165 L46 170 M68 151 L46 146"/>
      <path d="M172 158 H194 M172 165 L194 170 M172 151 L194 146"/>
    </g>
    <path d="M113 161 H127 L120 169 Z" fill="#E78CA0"/>
  </g>
  <g id="face-worried">
    <circle cx="98" cy="146" r="8" fill="#2B2B2B"/><circle cx="101" cy="143" r="2.6" fill="#fff"/>
    <circle cx="142" cy="146" r="8" fill="#2B2B2B"/><circle cx="145" cy="143" r="2.6" fill="#fff"/>
    <path d="M86 128 L108 134 M154 128 L132 134" stroke="#2B2B2B" stroke-width="3.2" stroke-linecap="round"/>
    <path d="M112 174 q8 -6 16 0" stroke="#B96F80" stroke-width="2.6" fill="none" stroke-linecap="round"/>
  </g>
  </g>
  <text x="700" y="318" text-anchor="middle" font-family="ui-sans-serif, system-ui, sans-serif" font-size="18" fill="#2B2B2B">worried</text>
  <g transform="translate(780 10)">
  <g id="body">
    <circle cx="66" cy="246" r="10" fill="#F6F3EC" stroke="#C9C1B3" stroke-width="3"/>
    <ellipse cx="120" cy="240" rx="50" ry="36" fill="#F6F3EC" stroke="#C9C1B3" stroke-width="3"/>
    <ellipse cx="98" cy="270" rx="17" ry="8" fill="#F6F3EC" stroke="#C9C1B3" stroke-width="3"/>
    <ellipse cx="142" cy="270" rx="17" ry="8" fill="#F6F3EC" stroke="#C9C1B3" stroke-width="3"/>
    <path d="M90 268 v5 M98 269 v5 M106 268 v5 M134 268 v5 M142 269 v5 M150 268 v5" stroke="#C9C1B3" stroke-width="2" stroke-linecap="round"/>
    <circle cx="92" cy="238" r="11" fill="#F6F3EC" stroke="#C9C1B3" stroke-width="3"/>
    <circle cx="148" cy="238" r="11" fill="#F6F3EC" stroke="#C9C1B3" stroke-width="3"/>
    <g transform="translate(164 232)">
      <circle r="17" fill="#2EA44F"/>
      <path d="M-7 2 a8 8 0 1 1 3.5 6.5" stroke="#fff" stroke-width="3.2" fill="none" stroke-linecap="round"/>
      <path d="M-5 9.5 l5.5 1.2 l-1 -5.6 z" fill="#fff"/>
    </g>
  </g>
  <g id="ears" stroke="#C9C1B3" stroke-width="3">
    <g transform="translate(96 118) rotate(-14)">
      <rect x="-19" y="-118" width="38" height="124" rx="19" fill="#F6F3EC"/>
      <rect x="-10" y="-102" width="20" height="92" rx="10" fill="#F9C3CE" stroke="none"/>
    </g>
    <g transform="translate(144 118) rotate(14)">
      <rect x="-19" y="-118" width="38" height="124" rx="19" fill="#F6F3EC"/>
      <rect x="-10" y="-102" width="20" height="92" rx="10" fill="#F9C3CE" stroke="none"/>
    </g>
  </g>
  <g id="head">
    <circle cx="120" cy="152" r="64" fill="#F6F3EC" stroke="#C9C1B3" stroke-width="3"/>
    <ellipse cx="82" cy="170" rx="12" ry="7.5" fill="#F8C9D2"/>
    <ellipse cx="158" cy="170" rx="12" ry="7.5" fill="#F8C9D2"/>
    <g stroke="#C9C1B3" stroke-width="2.2" stroke-linecap="round" fill="none">
      <path d="M68 158 H46 M68 165 L46 170 M68 151 L46 146"/>
      <path d="M172 158 H194 M172 165 L194 170 M172 151 L194 146"/>
    </g>
    <path d="M113 161 H127 L120 169 Z" fill="#E78CA0"/>
  </g>
  <g id="face-sleepy">
    <path d="M89 146 h18 M133 146 h18" stroke="#2B2B2B" stroke-width="4" stroke-linecap="round"/>
    <path d="M120 169 q-4 7 -10 4 M120 169 q4 7 10 4" stroke="#B96F80" stroke-width="2.6" fill="none" stroke-linecap="round"/>
    <g fill="#2B2B2B" font-family="ui-sans-serif, system-ui, sans-serif" font-weight="700">
      <text x="176" y="98" font-size="18">z</text><text x="190" y="80" font-size="24">z</text><text x="208" y="58" font-size="30">z</text>
    </g>
  </g>
  </g>
  <text x="900" y="318" text-anchor="middle" font-family="ui-sans-serif, system-ui, sans-serif" font-size="18" fill="#2B2B2B">sleepy</text>
  <g transform="translate(980 10)">
  <g id="body">
    <circle cx="66" cy="246" r="10" fill="#F6F3EC" stroke="#C9C1B3" stroke-width="3"/>
    <ellipse cx="120" cy="240" rx="50" ry="36" fill="#F6F3EC" stroke="#C9C1B3" stroke-width="3"/>
    <ellipse cx="98" cy="270" rx="17" ry="8" fill="#F6F3EC" stroke="#C9C1B3" stroke-width="3"/>
    <ellipse cx="142" cy="270" rx="17" ry="8" fill="#F6F3EC" stroke="#C9C1B3" stroke-width="3"/>
    <path d="M90 268 v5 M98 269 v5 M106 268 v5 M134 268 v5 M142 269 v5 M150 268 v5" stroke="#C9C1B3" stroke-width="2" stroke-linecap="round"/>
    <circle cx="92" cy="238" r="11" fill="#F6F3EC" stroke="#C9C1B3" stroke-width="3"/>
    <circle cx="148" cy="238" r="11" fill="#F6F3EC" stroke="#C9C1B3" stroke-width="3"/>
    <g transform="translate(164 232)">
      <circle r="17" fill="#2EA44F"/>
      <path d="M-7 2 a8 8 0 1 1 3.5 6.5" stroke="#fff" stroke-width="3.2" fill="none" stroke-linecap="round"/>
      <path d="M-5 9.5 l5.5 1.2 l-1 -5.6 z" fill="#fff"/>
    </g>
  </g>
  <g id="ears" stroke="#C9C1B3" stroke-width="3">
    <g transform="translate(96 118) rotate(-14)">
      <rect x="-19" y="-118" width="38" height="124" rx="19" fill="#F6F3EC"/>
      <rect x="-10" y="-102" width="20" height="92" rx="10" fill="#F9C3CE" stroke="none"/>
    </g>
    <g transform="translate(144 118) rotate(14)">
      <rect x="-19" y="-118" width="38" height="124" rx="19" fill="#F6F3EC"/>
      <rect x="-10" y="-102" width="20" height="92" rx="10" fill="#F9C3CE" stroke="none"/>
    </g>
  </g>
  <g id="head">
    <circle cx="120" cy="152" r="64" fill="#F6F3EC" stroke="#C9C1B3" stroke-width="3"/>
    <ellipse cx="82" cy="170" rx="12" ry="7.5" fill="#F8C9D2"/>
    <ellipse cx="158" cy="170" rx="12" ry="7.5" fill="#F8C9D2"/>
    <g stroke="#C9C1B3" stroke-width="2.2" stroke-linecap="round" fill="none">
      <path d="M68 158 H46 M68 165 L46 170 M68 151 L46 146"/>
      <path d="M172 158 H194 M172 165 L194 170 M172 151 L194 146"/>
    </g>
    <path d="M113 161 H127 L120 169 Z" fill="#E78CA0"/>
  </g>
  <g id="face-teary">
    <circle cx="98" cy="144" r="7" fill="#2B2B2B"/><circle cx="100.5" cy="141.5" r="2.4" fill="#fff"/>
    <circle cx="142" cy="144" r="7" fill="#2B2B2B"/><circle cx="144.5" cy="141.5" r="2.4" fill="#fff"/>
    <path d="M86 130 L106 136 M154 130 L134 136" stroke="#2B2B2B" stroke-width="3" stroke-linecap="round"/>
    <path d="M92 156 q-5 11 0 14 q5 -3 0 -14z" fill="#8CC4F0"/>
    <path d="M112 176 q8 -5 16 0" stroke="#B96F80" stroke-width="2.6" fill="none" stroke-linecap="round"/>
  </g>
  </g>
  <text x="1100" y="318" text-anchor="middle" font-family="ui-sans-serif, system-ui, sans-serif" font-size="18" fill="#2B2B2B">teary</text>
  <g transform="translate(1180 10)">
  <g id="body">
    <circle cx="66" cy="246" r="10" fill="#F6F3EC" stroke="#C9C1B3" stroke-width="3"/>
    <ellipse cx="120" cy="240" rx="50" ry="36" fill="#F6F3EC" stroke="#C9C1B3" stroke-width="3"/>
    <ellipse cx="98" cy="270" rx="17" ry="8" fill="#F6F3EC" stroke="#C9C1B3" stroke-width="3"/>
    <ellipse cx="142" cy="270" rx="17" ry="8" fill="#F6F3EC" stroke="#C9C1B3" stroke-width="3"/>
    <path d="M90 268 v5 M98 269 v5 M106 268 v5 M134 268 v5 M142 269 v5 M150 268 v5" stroke="#C9C1B3" stroke-width="2" stroke-linecap="round"/>
    <circle cx="92" cy="238" r="11" fill="#F6F3EC" stroke="#C9C1B3" stroke-width="3"/>
    <circle cx="148" cy="238" r="11" fill="#F6F3EC" stroke="#C9C1B3" stroke-width="3"/>
    <g transform="translate(164 232)">
      <circle r="17" fill="#2EA44F"/>
      <path d="M-7 2 a8 8 0 1 1 3.5 6.5" stroke="#fff" stroke-width="3.2" fill="none" stroke-linecap="round"/>
      <path d="M-5 9.5 l5.5 1.2 l-1 -5.6 z" fill="#fff"/>
    </g>
  </g>
  <g id="ears" stroke="#C9C1B3" stroke-width="3">
    <g transform="translate(96 118) rotate(-14)">
      <rect x="-19" y="-118" width="38" height="124" rx="19" fill="#F6F3EC"/>
      <rect x="-10" y="-102" width="20" height="92" rx="10" fill="#F9C3CE" stroke="none"/>
    </g>
    <g transform="translate(144 118) rotate(14)">
      <rect x="-19" y="-118" width="38" height="124" rx="19" fill="#F6F3EC"/>
      <rect x="-10" y="-102" width="20" height="92" rx="10" fill="#F9C3CE" stroke="none"/>
    </g>
  </g>
  <g id="head">
    <circle cx="120" cy="152" r="64" fill="#F6F3EC" stroke="#C9C1B3" stroke-width="3"/>
    <ellipse cx="82" cy="170" rx="12" ry="7.5" fill="#F8C9D2"/>
    <ellipse cx="158" cy="170" rx="12" ry="7.5" fill="#F8C9D2"/>
    <g stroke="#C9C1B3" stroke-width="2.2" stroke-linecap="round" fill="none">
      <path d="M68 158 H46 M68 165 L46 170 M68 151 L46 146"/>
      <path d="M172 158 H194 M172 165 L194 170 M172 151 L194 146"/>
    </g>
    <path d="M113 161 H127 L120 169 Z" fill="#E78CA0"/>
  </g>
  <g id="face-crying">
    <path d="M88 142 q10 10 20 0 M132 142 q10 10 20 0" stroke="#2B2B2B" stroke-width="4.2" fill="none" stroke-linecap="round"/>
    <path d="M90 154 q-6 14 0 18 q6 -4 0 -18z M150 154 q-6 14 0 18 q6 -4 0 -18z" fill="#8CC4F0"/>
    <path d="M108 180 q12 -10 24 0" stroke="#B96F80" stroke-width="2.8" fill="none" stroke-linecap="round"/>
  </g>
  </g>
  <text x="1300" y="318" text-anchor="middle" font-family="ui-sans-serif, system-ui, sans-serif" font-size="18" fill="#2B2B2B">crying</text>
</svg>
